<svg width="586" height="343" viewBox="0 0 586 343" fill="none" xmlns="http://www.w3.org/2000/svg">
<g clip-path="url(#clip0)">
<rect width="855" height="456" fill="transparent"/>
<path d="M394.165 200.197V250.554H301.884V200.197C301.884 196.19 303.707 192.348 306.952 189.514C310.197 186.681 314.598 185.09 319.187 185.09H376.862C381.451 185.09 385.852 186.681 389.097 189.514C392.342 192.348 394.165 196.19 394.165 200.197Z" fill="#720000"/>
<path d="M336.489 175.018H359.56V185.09C359.56 187.761 358.344 190.322 356.181 192.211C354.018 194.1 351.084 195.161 348.025 195.161C344.965 195.161 342.031 194.1 339.868 192.211C337.705 190.322 336.489 187.761 336.489 185.09V175.018Z" fill="#FFDAAA"/>
<path d="M317.766 115.957C325.781 108.959 336.664 105.018 348.025 105.018C359.385 105.018 370.268 108.959 378.283 115.957C386.296 122.952 390.781 132.425 390.781 142.286V174.518H305.268V142.286C305.268 132.425 309.753 122.952 317.766 115.957Z" fill="#0D0D0D"/>
<path d="M317.766 115.957C325.781 108.959 336.664 105.018 348.025 105.018C359.385 105.018 370.268 108.959 378.283 115.957C386.296 122.952 390.781 132.425 390.781 142.286V174.518H305.268V142.286C305.268 132.425 309.753 122.952 317.766 115.957Z" stroke="black"/>
<path d="M317.766 115.957C325.781 108.959 336.664 105.018 348.025 105.018C359.385 105.018 370.268 108.959 378.283 115.957C386.296 122.952 390.781 132.425 390.781 142.286V174.518H305.268V142.286C305.268 132.425 309.753 122.952 317.766 115.957Z" stroke="url(#paint0_linear)"/>
<path d="M319.187 144.804H310.535C309.006 144.804 307.539 145.334 306.457 146.279C305.375 147.223 304.768 148.504 304.768 149.839C304.768 151.175 305.375 152.456 306.457 153.4C307.539 154.345 309.006 154.875 310.535 154.875H319.187V144.804Z" fill="#FFDAAA"/>
<path d="M376.862 144.804H385.514C387.044 144.804 388.511 145.334 389.592 146.279C390.674 147.223 391.281 148.504 391.281 149.839C391.281 151.175 390.674 152.456 389.592 153.4C388.511 154.345 387.044 154.875 385.514 154.875H376.862V144.804Z" fill="#FFDAAA"/>
<path d="M379.746 152.357V134.732H316.303V152.357C316.303 159.703 319.645 166.748 325.594 171.942C331.543 177.136 339.611 180.054 348.025 180.054C352.19 180.054 356.315 179.337 360.164 177.946C364.013 176.554 367.51 174.514 370.455 171.942C373.401 169.37 375.737 166.317 377.332 162.956C378.926 159.596 379.746 155.995 379.746 152.357Z" fill="#FFE9CC"/>
<path d="M388.398 190.125H451.841C454.9 190.125 457.835 191.186 459.998 193.075C462.161 194.964 463.376 197.526 463.376 200.197V240.483H376.862V200.197C376.862 197.526 378.078 194.964 380.241 193.075C382.404 191.186 385.338 190.125 388.398 190.125Z" fill="#300097"/>
<path d="M371.095 240.483H469.144V245.518C469.144 246.854 468.536 248.135 467.455 249.079C466.373 250.024 464.906 250.554 463.376 250.554H376.862C375.333 250.554 373.866 250.024 372.784 249.079C371.703 248.135 371.095 246.854 371.095 245.518V240.483Z" fill="#461891"/>
<path d="M330.722 149.839C330.722 149.172 331.026 148.531 331.566 148.059C332.107 147.587 332.841 147.322 333.606 147.322C334.37 147.322 335.104 147.587 335.645 148.059C336.186 148.531 336.489 149.172 336.489 149.839V152.357H342.257V149.839C342.257 147.836 341.345 145.915 339.723 144.498C338.101 143.082 335.9 142.286 333.606 142.286C331.311 142.286 329.111 143.082 327.488 144.498C325.866 145.915 324.954 147.836 324.954 149.839V152.357H330.722V149.839Z" fill="black"/>
<path d="M359.56 149.839C359.56 149.172 359.864 148.531 360.404 148.059C360.945 147.587 361.679 147.322 362.444 147.322C363.208 147.322 363.942 147.587 364.483 148.059C365.023 148.531 365.327 149.172 365.327 149.839V152.357H371.095V149.839C371.095 147.836 370.183 145.915 368.561 144.498C366.939 143.082 364.738 142.286 362.444 142.286C360.149 142.286 357.949 143.082 356.326 144.498C354.704 145.915 353.792 147.836 353.792 149.839V152.357H359.56V149.839Z" fill="black"/>
<path d="M342.257 159.911H336.489V162.429C336.489 165.1 337.705 167.662 339.868 169.55C342.031 171.439 344.965 172.5 348.025 172.5C351.084 172.5 354.018 171.439 356.181 169.55C358.344 167.662 359.56 165.1 359.56 162.429V159.911H353.792V162.429C353.792 163.764 353.184 165.045 352.103 165.99C351.021 166.934 349.554 167.465 348.025 167.465C346.495 167.465 345.028 166.934 343.946 165.99C342.865 165.045 342.257 163.764 342.257 162.429V159.911Z" fill="black"/>
<path d="M466.26 200.197C466.256 196.859 464.735 193.659 462.032 191.299C459.329 188.939 455.664 187.611 451.841 187.607H390.953C387.189 184.388 382.132 182.58 376.862 182.572H362.444V179.802C364.064 179.152 365.625 178.395 367.112 177.536H394.165V142.286C394.165 131.601 389.304 121.355 380.651 113.799C371.998 106.244 360.262 102 348.025 102C335.787 102 324.051 106.244 315.398 113.799C306.745 121.355 301.884 131.601 301.884 142.286V177.536H328.937C330.424 178.395 331.985 179.152 333.606 179.802V182.572H319.187C313.835 182.577 308.704 184.436 304.919 187.74C301.135 191.044 299.006 195.524 299 200.197V250.554C299 251.222 299.304 251.862 299.845 252.335C300.385 252.807 301.119 253.072 301.884 253.072H463.376C465.671 253.072 467.871 252.276 469.494 250.86C471.116 249.443 472.028 247.522 472.028 245.518V237.965H466.26V200.197ZM460.493 200.197V237.965H379.746V200.197C379.746 198.193 380.658 196.272 382.28 194.856C383.903 193.439 386.103 192.643 388.398 192.643H451.841C454.136 192.643 456.336 193.439 457.959 194.856C459.581 196.272 460.493 198.193 460.493 200.197ZM319.187 137.25H376.862V152.357C376.862 159.035 373.824 165.439 368.416 170.161C363.008 174.883 355.673 177.536 348.025 177.536C340.376 177.536 333.041 174.883 327.633 170.161C322.225 165.439 319.187 159.035 319.187 152.357V137.25ZM382.63 147.322H385.514C386.279 147.322 387.012 147.587 387.553 148.059C388.094 148.531 388.398 149.172 388.398 149.839C388.398 150.507 388.094 151.148 387.553 151.62C387.012 152.092 386.279 152.357 385.514 152.357H382.63V147.322ZM373.745 172.5C378.118 168.259 381.019 163.02 382.108 157.393H385.514C386.499 157.385 387.474 157.228 388.398 156.93V172.5H373.745ZM348.025 107.036C358.729 107.046 368.991 110.763 376.56 117.371C384.129 123.98 388.386 132.94 388.398 142.286V142.749C387.474 142.451 386.499 142.294 385.514 142.286H382.63V134.732C382.63 134.064 382.326 133.424 381.785 132.952C381.245 132.48 380.511 132.214 379.746 132.214H316.303C315.538 132.214 314.804 132.48 314.264 132.952C313.723 133.424 313.419 134.064 313.419 134.732V142.286H310.535C309.551 142.294 308.575 142.451 307.651 142.749V142.286C307.663 132.94 311.92 123.98 319.489 117.371C327.058 110.763 337.32 107.046 348.025 107.036ZM313.419 152.357H310.535C309.77 152.357 309.037 152.092 308.496 151.62C307.955 151.148 307.651 150.507 307.651 149.839C307.651 149.172 307.955 148.531 308.496 148.059C309.037 147.587 309.77 147.322 310.535 147.322H313.419V152.357ZM307.651 156.93C308.575 157.228 309.551 157.385 310.535 157.393H313.941C315.03 163.02 317.931 168.259 322.304 172.5H307.651V156.93ZM348.025 182.572C350.946 182.558 353.853 182.22 356.676 181.565V185.09C356.676 187.093 355.764 189.014 354.142 190.431C352.52 191.847 350.319 192.643 348.025 192.643C345.73 192.643 343.53 191.847 341.907 190.431C340.285 189.014 339.373 187.093 339.373 185.09V181.565C342.196 182.22 345.103 182.558 348.025 182.572ZM304.768 200.197C304.772 196.859 306.293 193.659 308.996 191.299C311.699 188.939 315.364 187.611 319.187 187.607H333.894C334.556 190.453 336.324 193.012 338.899 194.85C341.475 196.688 344.698 197.692 348.025 197.692C351.351 197.692 354.574 196.688 357.15 194.85C359.725 193.012 361.493 190.453 362.155 187.607H376.862C378.848 187.611 380.812 187.973 382.63 188.67C380.061 189.649 377.874 191.261 376.337 193.308C374.801 195.355 373.981 197.749 373.979 200.197V237.965H368.211V245.518C368.221 246.378 368.4 247.23 368.742 248.036H327.838V215.304H322.07V248.036H304.768V200.197ZM466.26 245.518C466.26 246.186 465.956 246.827 465.416 247.299C464.875 247.771 464.141 248.036 463.376 248.036H376.862C376.098 248.036 375.364 247.771 374.823 247.299C374.283 246.827 373.979 246.186 373.979 245.518V243.001H466.26V245.518Z" fill="black"/>
<path d="M410.623 221.077L404.011 215.304L410.623 209.531L406.545 205.97L395.855 215.304L406.545 224.638L410.623 221.077Z" fill="black"/>
<path d="M433.693 224.638L444.384 215.304L433.693 205.97L429.616 209.531L436.228 215.304L429.616 221.077L433.693 224.638Z" fill="black"/>
<path d="M420.271 206.952L414.5 222.06L419.971 223.653L425.742 208.545L420.271 206.952Z" fill="black"/>
<path d="M236.896 206.1H240.172C243.306 206.1 245.845 204.617 245.845 202.788C245.845 200.959 243.306 199.477 240.172 199.477H236.896C233.762 199.477 231.222 200.959 231.222 202.788C231.222 204.617 233.762 206.1 236.896 206.1Z" fill="black"/>
<path d="M236.896 216.496H240.172C243.306 216.496 245.845 215.013 245.845 213.185C245.845 211.356 243.306 209.874 240.172 209.874H236.896C233.762 209.874 231.222 211.356 231.222 213.185C231.222 215.013 233.762 216.496 236.896 216.496Z" fill="black"/>
<path d="M281.606 199.477H278.329C275.195 199.477 272.655 200.96 272.655 202.789C272.655 204.617 275.195 206.1 278.329 206.1H281.606C284.739 206.1 287.279 204.617 287.279 202.789C287.279 200.96 284.74 199.477 281.606 199.477Z" fill="black"/>
<path d="M281.606 209.874H278.329C275.195 209.874 272.655 211.356 272.655 213.185C272.655 215.013 275.195 216.496 278.329 216.496H281.606C284.739 216.496 287.279 215.013 287.279 213.185C287.279 211.356 284.74 209.874 281.606 209.874Z" fill="black"/>
<path d="M558.4 246.505H522.345C530.326 238.41 531.217 229.985 531.157 226.252C531.106 223.196 526.802 220.71 521.564 220.71H471.713C466.474 220.71 462.171 223.196 462.12 226.252C462.059 229.984 462.949 238.409 470.931 246.505H306.357V195.03C306.357 191.154 300.954 188 294.313 188H224.189C217.546 188 212.144 191.154 212.144 195.03V214.203C212.144 216.032 214.683 217.514 217.818 217.514C220.951 217.514 223.491 216.032 223.491 214.203V195.03C223.491 194.805 223.804 194.622 224.189 194.622H253.578V246.505H223.491V229.579C223.491 227.75 220.951 226.267 217.817 226.267C214.683 226.267 212.143 227.75 212.143 229.579V246.505H189.598C184.306 246.505 180 249.018 180 252.107V263.605C180 266.694 184.306 269.207 189.598 269.207H196.027V398.37C196.027 402.026 201.123 405 207.388 405H226.089C232.353 405 237.45 402.026 237.45 398.37L237.463 352.644L510.55 352.652V398.37C510.55 402.026 515.647 405 521.911 405H540.612C546.876 405 551.973 402.026 551.973 398.37V345.122C551.973 343.293 549.433 341.81 546.299 341.81C543.166 341.81 540.626 343.293 540.626 345.122L540.611 398.378L521.896 398.37V352.652C521.896 348.996 516.8 346.021 510.536 346.021H237.462C231.199 346.021 226.102 348.996 226.102 352.652L226.089 398.377L207.374 398.369V269.206H540.626V329.718C540.626 331.547 543.165 333.03 546.299 333.03C549.433 333.03 551.973 331.547 551.973 329.718V269.207H558.402C563.694 269.207 568 266.694 568 263.605V252.107C567.998 249.018 563.693 246.505 558.4 246.505ZM519.799 227.332C519.64 231.453 518.016 239.604 508.686 246.505H484.592C475.26 239.603 473.638 231.452 473.48 227.332H519.799ZM264.924 194.622H294.313C294.697 194.622 295.01 194.805 295.01 195.03V246.505H264.924V194.622ZM556.652 262.584H191.347V253.127H556.652V262.584Z" fill="black"/>
</g>
<defs>
<linearGradient id="paint0_linear" x1="348.025" y1="104.518" x2="348.025" y2="175.018" gradientUnits="userSpaceOnUse">
<stop stop-color="white"/>
<stop offset="1" stop-color="white" stop-opacity="0"/>
</linearGradient>
<clipPath id="clip0">
<rect width="586" height="343" fill="white"/>
</clipPath>
</defs>
</svg>
